<mxfile host="app.diagrams.net" modified="2023-11-27T06:33:44.548Z" agent="Mozilla/5.0 (X11; Ubuntu; Linux x86_64; rv:120.0) Gecko/20100101 Firefox/120.0" version="22.1.4" etag="gYb2qRzu4a5p9udbZhPO" type="github">
  <diagram name="Page-1" id="qTZ9xjwdG6YX7g10bkqc">
    <mxGraphModel>
      <root>
        <mxCell id="0" />
        <mxCell id="1" parent="0" />
      </root>
    </mxGraphModel>
  </diagram>
</mxfile>
